<svg xmlns="http://www.w3.org/2000/svg" version="1.1" xmlns:xlink="http://www.w3.org/1999/xlink" xmlns:svgjs="http://svgjs.dev/svgjs" width="1000" height="179" viewBox="0 0 1000 179"><g transform="matrix(1,0,0,1,-0.6060606060606233,0.0686130592194445)"><svg viewBox="0 0 396 71" data-background-color="#333333" preserveAspectRatio="xMidYMid meet" height="179" width="1000" xmlns="http://www.w3.org/2000/svg" xmlns:xlink="http://www.w3.org/1999/xlink"><g id="tight-bounds" transform="matrix(1,0,0,1,0.2400000000000091,-0.027215235779777913)"><svg viewBox="0 0 395.52 71.05406802977876" height="71.05406802977876" width="395.52"><g><svg viewBox="0 0 504.95375224154554 90.71353727665561" height="71.05406802977876" width="395.52"><g transform="matrix(1,0,0,1,109.43375224154559,25.532416560088198)"><svg viewBox="0 0 395.52 39.64870415647922" height="39.64870415647922" width="395.52"><g id="textblocktransform"><svg viewBox="0 0 395.52 39.64870415647922" height="39.64870415647922" width="395.52" id="textblock"><g><svg viewBox="0 0 395.52 39.64870415647922" height="39.64870415647922" width="395.52"><g transform="matrix(1,0,0,1,0,0)"><svg width="395.52" viewBox="0.4000000059604645 -37.75 388.5 38.95000076293945" height="39.64870415647922" data-palette-color="#7fc37e"><path d="M16.55-2.45L0.4 0.05 6.95-35.5 22.75-36.85Q22.4-35.75 22.15-34.6L22.15-34.6Q21.9-33.65 21.68-32.63 21.45-31.6 21.3-30.8L21.3-30.8Q20.8-30.75 19.88-30.73 18.95-30.7 17.9-30.68 16.85-30.65 15.78-30.65 14.7-30.65 13.9-30.65L13.9-30.65 12.15-21.7Q13.7-21.8 15.05-21.85L15.05-21.85Q16.15-21.9 17.3-21.9 18.45-21.9 19-21.95L19-21.95Q18.8-20.55 18.63-19.2 18.45-17.85 18.2-16.45L18.2-16.45Q17.7-16.4 16.57-16.38 15.45-16.35 14.3-16.3L14.3-16.3Q13-16.25 11.45-16.2L11.45-16.2 9.75-7 17.05-8.15 16.55-2.45ZM39.2-12.35Q39.2-9.55 38.12-7.28 37.05-5 35.22-3.35 33.4-1.7 30.92-0.8 28.45 0.1 25.6 0.1L25.6 0.1Q23.6 0.1 21.6-0.98 19.6-2.05 17.75-4.4L17.75-4.4 21.45-11.65Q21.8-11 22.5-10.33 23.2-9.65 24.07-9.15 24.95-8.65 25.82-8.33 26.7-8 27.4-8L27.4-8Q28-8 28.65-8.2 29.3-8.4 29.85-8.8 30.4-9.2 30.72-9.73 31.05-10.25 31.05-10.95L31.05-10.95Q31.05-12.15 30.27-13.18 29.5-14.2 28.35-15.13 27.2-16.05 25.85-17 24.5-17.95 23.37-19 22.25-20.05 21.45-21.35 20.65-22.65 20.65-24.25L20.65-24.25Q20.65-26.85 22.2-29.1 23.75-31.35 26.07-32.98 28.4-34.6 31.15-35.55 33.9-36.5 36.35-36.5L36.35-36.5Q37.7-36.5 38.9-36.18 40.1-35.85 40.97-35.13 41.85-34.4 42.37-33.3 42.9-32.2 42.9-30.55L42.9-30.55Q42.9-29.85 42.77-29.15 42.65-28.45 42.55-27.65L42.55-27.65 35.3-25.55Q35.4-25.95 35.47-26.35 35.55-26.75 35.55-27.15L35.55-27.15Q35.55-28.65 35.02-29.33 34.5-30 33.65-30L33.65-30Q33.25-30 32.67-29.7 32.1-29.4 31.52-28.93 30.95-28.45 30.55-27.8 30.15-27.15 30.15-26.4L30.15-26.4Q30.15-25.2 30.82-24.4 31.5-23.6 32.5-22.9 33.5-22.2 34.67-21.48 35.85-20.75 36.85-19.6 37.85-18.45 38.52-16.73 39.2-15 39.2-12.35L39.2-12.35ZM59.65-10.75Q58.45-8 56.97-5.98 55.5-3.95 53.87-2.58 52.25-1.2 50.59-0.55 48.95 0.1 47.4 0.1L47.4 0.1Q45.84 0.1 44.57-0.6 43.3-1.3 42.34-2.7 41.4-4.1 40.82-6.15 40.25-8.2 40.25-10.95L40.25-10.95Q40.25-15.65 41.55-20.23 42.84-24.8 45.2-28.45 47.55-32.1 50.77-34.33 54-36.55 57.9-36.55L57.9-36.55Q59.09-36.55 60.2-36.05 61.3-35.55 62.09-34.65 62.9-33.75 63.37-32.45 63.84-31.15 63.84-29.55L63.84-29.55Q63.84-29.25 63.84-28.93 63.84-28.6 63.8-28.25L63.8-28.25 57.25-26.5Q56.65-27.75 55.84-27.75L55.84-27.75Q55.05-27.75 54.17-26.83 53.3-25.9 52.45-24.43 51.59-22.95 50.8-21.13 50-19.3 49.4-17.45 48.8-15.6 48.42-13.93 48.05-12.25 48.05-11.2L48.05-11.2Q48.05-9.6 48.47-8.95 48.9-8.3 49.59-8.3L49.59-8.3Q50.15-8.3 50.84-8.72 51.55-9.15 52.15-9.83 52.75-10.5 53.25-11.35 53.75-12.2 53.95-13.05L53.95-13.05 59.65-10.75ZM76.99-1Q75.74-0.8 74.24-0.55 72.74-0.3 71.54-0.1L71.54-0.1Q71.74-1.75 71.94-3.35L71.94-3.35Q72.09-4.75 72.22-6.15 72.34-7.55 72.44-8.55L72.44-8.55 68.09-8.55 66.09-1.35Q64.99-1.2 63.49-1.03 61.99-0.85 60.69-0.7L60.69-0.7Q59.09-0.5 57.54-0.3L57.54-0.3Q59.54-6.95 61.49-13.4L61.49-13.4Q62.29-16.1 63.17-19.05 64.04-22 64.92-24.93 65.79-27.85 66.59-30.55 67.39-33.25 67.99-35.5L67.99-35.5Q71.39-35.75 74.92-36.1 78.44-36.45 81.79-37.05L81.79-37.05Q81.64-35.45 81.47-33.08 81.29-30.7 81.14-27.9 80.99-25.1 80.84-22.05 80.69-19 80.54-16.05L80.54-16.05Q80.29-9.15 79.99-1.4L79.99-1.4Q78.49-1.15 76.99-1L76.99-1ZM72.39-26.1L69.29-13.55Q69.49-13.55 70.02-13.58 70.54-13.6 71.12-13.63 71.69-13.65 72.19-13.68 72.69-13.7 72.89-13.75L72.89-13.75Q72.89-14.05 72.97-14.78 73.04-15.5 73.12-16.43 73.19-17.35 73.29-18.45 73.39-19.55 73.49-20.6L73.49-20.6Q73.69-23.15 73.99-26.1L73.99-26.1 74.29-30.45 73.54-30.4 72.39-26.1ZM88.74-1.65L80.09 0.05Q81.59-6.7 82.94-13.15L82.94-13.15Q83.49-15.85 84.09-18.85 84.69-21.85 85.24-24.75 85.79-27.65 86.29-30.35 86.79-33.05 87.14-35.3L87.14-35.3Q88.59-35.75 89.99-36.08 91.39-36.4 92.87-36.65 94.34-36.9 95.64-36.9L95.64-36.9Q97.89-36.9 99.42-36.15 100.94-35.4 101.89-34.13 102.84-32.85 103.24-31.15 103.64-29.45 103.64-27.5L103.64-27.5Q103.64-24.7 102.62-22.1 101.59-19.5 99.87-17.48 98.14-15.45 95.92-14.25 93.69-13.05 91.29-13.05L91.29-13.05 90.74-13.05Q90.34-11.35 89.99-9.35 89.64-7.35 89.39-5.65L89.39-5.65Q89.04-3.65 88.74-1.65L88.74-1.65ZM94.04-30.85Q93.49-27.55 92.94-24.6 92.39-21.65 91.74-18.3L91.74-18.3Q92.54-18.5 93.42-19.23 94.29-19.95 95.04-21.13 95.79-22.3 96.24-23.85 96.69-25.4 96.69-27.1L96.69-27.1Q96.69-28.95 95.87-29.9 95.04-30.85 94.04-30.85L94.04-30.85ZM115.74-2.45L99.59 0.05 106.14-35.5 121.94-36.85Q121.59-35.75 121.34-34.6L121.34-34.6Q121.09-33.65 120.86-32.63 120.64-31.6 120.49-30.8L120.49-30.8Q119.99-30.75 119.06-30.73 118.14-30.7 117.09-30.68 116.04-30.65 114.96-30.65 113.89-30.65 113.09-30.65L113.09-30.65 111.34-21.7Q112.89-21.8 114.24-21.85L114.24-21.85Q115.34-21.9 116.49-21.9 117.64-21.9 118.19-21.95L118.19-21.95Q117.99-20.55 117.81-19.2 117.64-17.85 117.39-16.45L117.39-16.45Q116.89-16.4 115.76-16.38 114.64-16.35 113.49-16.3L113.49-16.3Q112.19-16.25 110.64-16.2L110.64-16.2 108.94-7 116.24-8.15 115.74-2.45ZM132.13-1.2Q130.73-0.95 129.08-0.6 127.43-0.25 126.18 0.05L126.18 0.05Q126.78-2.1 127.36-4.78 127.93-7.45 128.51-10.4 129.08-13.35 129.61-16.38 130.13-19.4 130.63-22.2L130.63-22.2Q131.68-28.85 132.73-35.95L132.73-35.95 149.48-36.8 148.03-30.65 140.18-30.65 138.63-21.75Q140.18-21.8 141.58-21.8L141.58-21.8Q142.73-21.8 143.93-21.8 145.13-21.8 145.78-21.85L145.78-21.85Q145.63-20.45 145.41-19.1 145.18-17.75 144.98-16.4L144.98-16.4Q144.33-16.4 143.13-16.43 141.93-16.45 140.66-16.5 139.38-16.55 137.78-16.6L137.78-16.6 135.48-1.85Q133.78-1.55 132.13-1.2L132.13-1.2ZM151.33-2.05L143.23 0.05Q144.58-6.6 145.83-12.95L145.83-12.95Q146.28-15.65 146.83-18.57 147.38-21.5 147.86-24.38 148.33-27.25 148.76-29.93 149.18-32.6 149.43-34.8L149.43-34.8Q152.28-35.7 155.58-36.13 158.88-36.55 162.13-36.55L162.13-36.55Q164.08-36.55 165.36-36.1 166.63-35.65 167.36-34.83 168.08-34 168.38-32.9 168.68-31.8 168.68-30.45L168.68-30.45Q168.68-28.45 167.98-26.53 167.28-24.6 166.11-22.88 164.93-21.15 163.41-19.73 161.88-18.3 160.13-17.4L160.13-17.4Q161.03-15.4 162.06-13.03 163.08-10.65 163.98-8.5L163.98-8.5Q164.98-6 166.03-3.5L166.03-3.5 158.28-0.8Q157.28-4.25 156.48-7.3L156.48-7.3Q156.13-8.55 155.78-9.88 155.43-11.2 155.13-12.38 154.83-13.55 154.63-14.45 154.43-15.35 154.38-15.85L154.38-15.85 153.73-15.65Q153.43-14.05 153.01-11.75 152.58-9.45 152.23-7.3L152.23-7.3Q151.78-4.75 151.33-2.05L151.33-2.05ZM156.58-29.6L154.98-21.65Q155.93-21.75 157.31-22.45 158.68-23.15 159.93-24.13 161.18-25.1 162.08-26.15 162.98-27.2 162.98-28L162.98-28Q162.98-28.55 162.63-28.88 162.28-29.2 161.66-29.38 161.03-29.55 160.28-29.6 159.53-29.65 158.73-29.65L158.73-29.65Q158.18-29.65 157.61-29.63 157.03-29.6 156.58-29.6L156.58-29.6ZM192.03-27.05Q192.03-22.95 191.15-19.33 190.28-15.7 188.83-12.68 187.38-9.65 185.45-7.28 183.53-4.9 181.43-3.23 179.33-1.55 177.18-0.68 175.03 0.2 173.08 0.2L173.08 0.2Q171.43 0.2 170.08-0.43 168.73-1.05 167.73-2.27 166.73-3.5 166.15-5.43 165.58-7.35 165.58-10.05L165.58-10.05Q165.58-12.85 166.28-15.95 166.98-19.05 168.18-22.1 169.38-25.15 171.13-27.9 172.88-30.65 174.98-32.77 177.08-34.9 179.48-36.15 181.88-37.4 184.48-37.4L184.48-37.4Q186.73-37.4 188.2-36.48 189.68-35.55 190.5-34.08 191.33-32.6 191.68-30.75 192.03-28.9 192.03-27.05L192.03-27.05ZM173.03-11.35Q173.03-10.8 173.23-10.2 173.43-9.6 173.78-9.15 174.13-8.7 174.65-8.38 175.18-8.05 175.78-8.05L175.78-8.05Q178.03-8.05 179.78-9.6 181.53-11.15 182.68-13.4 183.83-15.65 184.45-18.2 185.08-20.75 185.08-22.85L185.08-22.85Q185.08-23.45 185-24.15 184.93-24.85 184.7-25.45 184.48-26.05 184-26.48 183.53-26.9 182.73-26.9L182.73-26.9Q181.13-26.9 179.78-26.1 178.43-25.3 177.35-23.98 176.28-22.65 175.48-20.98 174.68-19.3 174.1-17.57 173.53-15.85 173.28-14.2 173.03-12.55 173.03-11.35L173.03-11.35ZM195.08-0.85L186.83-0.3Q189.03-6.95 191.03-13.35L191.03-13.35Q191.88-16.05 192.78-19 193.68-21.95 194.58-24.85 195.48-27.75 196.25-30.45 197.03-33.15 197.63-35.45L197.63-35.45Q200.38-35.45 202.83-35.75 205.28-36.05 208.13-36.3L208.13-36.3Q207.98-35.2 207.8-33.83 207.63-32.45 207.4-30.95 207.18-29.45 206.93-27.85 206.68-26.25 206.33-23.75 205.98-21.25 205.38-17.5L205.38-17.5 206.03-17.5Q207.48-21.3 208.43-23.83 209.38-26.35 209.98-27.95 210.58-29.55 211.2-31.08 211.83-32.6 212.4-33.98 212.98-35.35 213.48-36.4L213.48-36.4Q214.73-36.5 215.83-36.65 216.93-36.8 218.03-36.98 219.13-37.15 220.25-37.33 221.38-37.5 222.73-37.75L222.73-37.75Q222.23-34.85 221.78-31.8 221.33-28.75 220.98-25.73 220.63-22.7 220.3-19.75 219.98-16.8 219.73-14.15L219.73-14.15Q219.13-7.95 218.68-2.05L218.68-2.05 209.98-0.5Q209.98-0.75 210.05-1.85 210.13-2.95 210.25-4.55 210.38-6.15 210.6-8.1 210.83-10.05 211.05-12 211.28-13.95 211.53-15.78 211.78-17.6 212.03-18.9L212.03-18.9 211.58-18.9Q210.88-16.8 210.03-14.48 209.18-12.15 208.3-9.75 207.43-7.35 206.58-5.05 205.73-2.75 205.08-0.65L205.08-0.65Q203.33-0.6 202.08-0.53 200.83-0.45 199.18-0.35L199.18-0.35 200.78-18.9 200.03-18.9Q199.93-18.25 199.53-16.73 199.13-15.2 198.6-13.23 198.08-11.25 197.48-9.13 196.88-7 196.35-5.18 195.83-3.35 195.48-2.18 195.13-1 195.08-0.85L195.08-0.85ZM254.47-25.55Q254.47-22.95 253.72-20.03 252.97-17.1 251.62-14.23 250.27-11.35 248.3-8.72 246.32-6.1 243.82-4.13 241.32-2.15 238.35-0.95 235.37 0.25 232.02 0.25L232.02 0.25Q231.32 0.25 230.62 0.18 229.92 0.1 229.22 0L229.22 0Q230.57-6.9 231.87-13.45L231.87-13.45Q232.37-16.2 232.92-19.18 233.47-22.15 233.97-25.05 234.47-27.95 234.95-30.6 235.42-33.25 235.72-35.4L235.72-35.4Q237.87-35.8 240.07-36.15 242.27-36.5 244.57-36.5L244.57-36.5Q247.27-36.5 249.15-35.65 251.02-34.8 252.2-33.3 253.37-31.8 253.92-29.8 254.47-27.8 254.47-25.55L254.47-25.55ZM242.67-29.45Q242.12-26.5 241.52-23.8 240.92-21.1 240.32-18.35 239.72-15.6 239.12-12.6 238.52-9.6 237.97-6.05L237.97-6.05Q239.17-6.85 240.3-8.22 241.42-9.6 242.42-11.4 243.42-13.2 244.25-15.2 245.07-17.2 245.67-19.1 246.27-21 246.6-22.65 246.92-24.3 246.92-25.5L246.92-25.5Q246.92-27.35 245.9-28.4 244.87-29.45 242.67-29.45L242.67-29.45ZM271.87-9.75Q271.17-6.9 269.89-4.9 268.62-2.9 266.89-1.6 265.17-0.3 263.22 0.3 261.27 0.9 259.32 0.9L259.32 0.9Q258.17 0.9 256.97 0.53 255.77 0.15 254.82-0.6 253.87-1.35 253.24-2.5 252.62-3.65 252.62-5.2L252.62-5.2Q252.62-5.4 252.62-5.6 252.62-5.8 252.67-6L252.67-6Q252.87-8.05 253.32-10.95 253.77-13.85 254.27-17 254.77-20.15 255.37-23.33 255.97-26.5 256.44-29.1 256.92-31.7 257.27-33.43 257.62-35.15 257.72-35.55L257.72-35.55Q258.77-35.65 260.22-35.8 261.67-35.95 262.92-36.05L262.92-36.05Q264.47-36.2 265.97-36.35L265.97-36.35Q264.67-30.3 263.67-25.4L263.67-25.4Q263.22-23.3 262.79-21.2 262.37-19.1 261.99-17.35 261.62-15.6 261.34-14.33 261.07-13.05 260.89-12.25 260.72-11.45 260.49-10.23 260.27-9 260.27-8L260.27-8Q260.27-7.2 260.67-6.68 261.07-6.15 261.67-6.15L261.67-6.15Q262.52-6.15 263.07-6.83 263.62-7.5 263.99-8.45 264.37-9.4 264.54-10.38 264.72-11.35 264.87-11.9L264.87-11.9Q265.17-13.35 265.54-15.13 265.92-16.9 266.29-18.82 266.67-20.75 267.04-22.75 267.42-24.75 267.77-26.65L267.77-26.65Q268.62-31.05 269.42-35.75L269.42-35.75 277.02-36.25Q277.02-36.25 276.77-34.95 276.52-33.65 276.12-31.5 275.72-29.35 275.24-26.6 274.77-23.85 274.17-20.88 273.57-17.9 272.99-15.03 272.42-12.15 271.87-9.75L271.87-9.75ZM279.62-1.45L272.32 0.25Q273.72-6.8 275.02-13.5L275.02-13.5Q275.52-16.3 276.09-19.38 276.67-22.45 277.17-25.43 277.67-28.4 278.09-31.18 278.52-33.95 278.77-36.25L278.77-36.25Q280.32-36.35 281.77-36.45L281.77-36.45Q283.07-36.55 284.42-36.63 285.77-36.7 286.82-36.8L286.82-36.8Q287.47-32.95 287.97-29.45L287.97-29.45Q288.22-27.95 288.49-26.33 288.77-24.7 289.02-23.2 289.27-21.7 289.52-20.33 289.77-18.95 290.02-17.9L290.02-17.9Q290.22-18.95 290.47-20.33 290.72-21.7 291.02-23.23 291.32-24.75 291.64-26.35 291.97-27.95 292.27-29.45L292.27-29.45Q293.02-32.95 293.82-36.75L293.82-36.75 299.92-37.5Q298.22-30 296.92-23.3L296.92-23.3Q296.32-20.4 295.74-17.45 295.17-14.5 294.67-11.75 294.17-9 293.82-6.68 293.47-4.35 293.27-2.75L293.27-2.75Q293.12-2.75 292.09-2.53 291.07-2.3 289.74-2 288.42-1.7 287.09-1.38 285.77-1.05 285.12-0.85L285.12-0.85Q284.77-4.9 284.37-8.55L284.37-8.55Q284.22-10.1 284.02-11.75 283.82-13.4 283.64-14.9 283.47-16.4 283.29-17.73 283.12-19.05 282.97-19.95L282.97-19.95Q282.82-19.05 282.57-17.75 282.32-16.45 282.07-14.98 281.82-13.5 281.57-11.93 281.32-10.35 281.02-8.85L281.02-8.85Q280.37-5.3 279.62-1.45L279.62-1.45ZM321.86-19.05Q321.51-13.95 319.86-10.18 318.21-6.4 315.89-3.85 313.56-1.3 310.89-0.05 308.21 1.2 305.81 1.2L305.81 1.2Q303.96 1.2 302.29 0.4 300.61-0.4 299.39-2.02 298.16-3.65 297.46-6.1 296.76-8.55 296.76-11.85L296.76-11.85Q296.76-18.3 298.61-23.1 300.46-27.9 303.29-31.1 306.11-34.3 309.34-35.85 312.56-37.4 315.36-37.4L315.36-37.4Q317.36-37.4 318.84-36.7 320.31-36 321.26-34.83 322.21-33.65 322.64-32.08 323.06-30.5 323.06-28.75L323.06-28.75 316.21-27.45Q315.76-29.45 315.01-30.3 314.26-31.15 313.31-31.15L313.31-31.15Q312.06-31.15 310.56-29.38 309.06-27.6 307.76-24.8 306.46-22 305.56-18.65 304.66-15.3 304.56-12.05L304.56-12.05Q304.56-8.95 305.49-7.63 306.41-6.3 307.86-6.3L307.86-6.3Q308.86-6.3 309.94-6.8 311.01-7.3 311.86-8.22 312.71-9.15 313.29-10.38 313.86-11.6 313.91-13.05L313.91-13.05 308.56-12.25 309.51-17.2Q311.86-17.5 314.11-17.8L314.11-17.8Q316.01-18.05 318.14-18.4 320.26-18.75 321.86-19.05L321.86-19.05ZM336.16-2.45L320.01 0.05 326.56-35.5 342.36-36.85Q342.01-35.75 341.76-34.6L341.76-34.6Q341.51-33.65 341.29-32.63 341.06-31.6 340.91-30.8L340.91-30.8Q340.41-30.75 339.49-30.73 338.56-30.7 337.51-30.68 336.46-30.65 335.38-30.65 334.31-30.65 333.51-30.65L333.51-30.65 331.76-21.7Q333.31-21.8 334.66-21.85L334.66-21.85Q335.76-21.9 336.91-21.9 338.06-21.9 338.61-21.95L338.61-21.95Q338.41-20.55 338.24-19.2 338.06-17.85 337.81-16.45L337.81-16.45Q337.31-16.4 336.19-16.38 335.06-16.35 333.91-16.3L333.91-16.3Q332.61-16.25 331.06-16.2L331.06-16.2 329.36-7 336.66-8.15 336.16-2.45ZM364.36-27.05Q364.36-22.95 363.48-19.33 362.61-15.7 361.16-12.68 359.71-9.65 357.78-7.28 355.86-4.9 353.76-3.23 351.66-1.55 349.51-0.68 347.36 0.2 345.41 0.2L345.41 0.2Q343.76 0.2 342.41-0.43 341.06-1.05 340.06-2.27 339.06-3.5 338.48-5.43 337.91-7.35 337.91-10.05L337.91-10.05Q337.91-12.85 338.61-15.95 339.31-19.05 340.51-22.1 341.71-25.15 343.46-27.9 345.21-30.65 347.31-32.77 349.41-34.9 351.81-36.15 354.21-37.4 356.81-37.4L356.81-37.4Q359.06-37.4 360.53-36.48 362.01-35.55 362.83-34.08 363.66-32.6 364.01-30.75 364.36-28.9 364.36-27.05L364.36-27.05ZM345.36-11.35Q345.36-10.8 345.56-10.2 345.76-9.6 346.11-9.15 346.46-8.7 346.98-8.38 347.51-8.05 348.11-8.05L348.11-8.05Q350.36-8.05 352.11-9.6 353.86-11.15 355.01-13.4 356.16-15.65 356.78-18.2 357.41-20.75 357.41-22.85L357.41-22.85Q357.41-23.45 357.33-24.15 357.26-24.85 357.03-25.45 356.81-26.05 356.33-26.48 355.86-26.9 355.06-26.9L355.06-26.9Q353.46-26.9 352.11-26.1 350.76-25.3 349.68-23.98 348.61-22.65 347.81-20.98 347.01-19.3 346.43-17.57 345.86-15.85 345.61-14.2 345.36-12.55 345.36-11.35L345.36-11.35ZM368.61-1.45L361.31 0.25Q362.7-6.8 364-13.5L364-13.5Q364.5-16.3 365.08-19.38 365.65-22.45 366.15-25.43 366.65-28.4 367.08-31.18 367.5-33.95 367.75-36.25L367.75-36.25Q369.31-36.35 370.75-36.45L370.75-36.45Q372.06-36.55 373.4-36.63 374.75-36.7 375.81-36.8L375.81-36.8Q376.45-32.95 376.95-29.45L376.95-29.45Q377.2-27.95 377.48-26.33 377.75-24.7 378-23.2 378.25-21.7 378.5-20.33 378.75-18.95 379-17.9L379-17.9Q379.2-18.95 379.45-20.33 379.7-21.7 380-23.23 380.31-24.75 380.63-26.35 380.95-27.95 381.25-29.45L381.25-29.45Q382-32.95 382.81-36.75L382.81-36.75 388.9-37.5Q387.2-30 385.9-23.3L385.9-23.3Q385.31-20.4 384.73-17.45 384.15-14.5 383.65-11.75 383.15-9 382.81-6.68 382.45-4.35 382.25-2.75L382.25-2.75Q382.11-2.75 381.08-2.53 380.06-2.3 378.73-2 377.4-1.7 376.08-1.38 374.75-1.05 374.11-0.85L374.11-0.85Q373.75-4.9 373.36-8.55L373.36-8.55Q373.2-10.1 373-11.75 372.81-13.4 372.63-14.9 372.45-16.4 372.28-17.73 372.11-19.05 371.95-19.95L371.95-19.95Q371.81-19.05 371.56-17.75 371.31-16.45 371.06-14.98 370.81-13.5 370.56-11.93 370.31-10.35 370-8.85L370-8.85Q369.36-5.3 368.61-1.45L368.61-1.45Z" opacity="1" transform="matrix(1,0,0,1,0,0)" fill="#7fc37e" class="wordmark-text-0" data-fill-palette-color="primary" id="text-0"></path></svg></g></svg></g></svg></g></svg></g><g><svg viewBox="0 0 90.71353727665561 90.71353727665561" height="90.71353727665561" width="90.71353727665561"><g><svg></svg></g><g id="icon-0"><svg viewBox="0 0 90.71353727665561 90.71353727665561" height="90.71353727665561" width="90.71353727665561"><g><path d="M0 45.357c0-25.05 20.307-45.357 45.357-45.357 25.05 0 45.357 20.307 45.357 45.357 0 25.05-20.307 45.357-45.357 45.357-25.05 0-45.357-20.307-45.357-45.357zM45.357 87.138c23.075 0 41.781-18.706 41.781-41.781 0-23.075-18.706-41.781-41.781-41.781-23.075 0-41.781 18.706-41.781 41.781 0 23.075 18.706 41.781 41.781 41.781z" data-fill-palette-color="accent" fill="#fefee2" stroke="transparent"></path></g><g transform="matrix(1,0,0,1,28.40869617581631,24.454947041855622)"><svg viewBox="0 0 33.896144925022995 41.80364319294437" height="41.80364319294437" width="33.896144925022995"><g><svg xmlns="http://www.w3.org/2000/svg" xmlns:xlink="http://www.w3.org/1999/xlink" version="1.1" x="0" y="0" viewBox="9.458000183105469 0 81.08499908447266 100.0009994506836" enable-background="new 0 0 100 100" xml:space="preserve" width="33.896144925022995" height="41.80364319294437" class="icon-s-0" data-fill-palette-color="accent" id="s-0"><path d="M29.896 16.875c4.646 0 8.437-3.792 8.437-8.438C38.333 3.771 34.542 0 29.896 0s-8.438 3.771-8.438 8.438C21.458 13.083 25.25 16.875 29.896 16.875zM85.125 72.75H68.812v-16c0-0.021 0.042-0.021 0.042-0.042 0-0.042 0.021-0.104 0.021-0.146 0-0.167 0-0.333-0.021-0.5 0-0.062 0-0.125-0.021-0.188-0.021-0.167-0.062-0.333-0.104-0.5 0-0.042-0.021-0.083-0.021-0.125-0.062-0.229-0.146-0.438-0.229-0.625 0-0.021 0-0.021 0-0.021-0.083-0.188-0.188-0.375-0.292-0.562-0.021-0.021-0.021 0.062-0.042 0.042L53.604 29.938h6.333c2.042 0.646 6.521 7.062 9.542 13.125 1.354 2.667 4.583 3.688 7.271 2.354 2.667-1.333 3.75-4.604 2.417-7.271-0.104-0.188-2.229-4.438-5.188-8.75-4.875-7.146-9.229-10.479-13.708-10.479H36.479c-2.458 0-4.625 1.562-5.229 3.958-1.875 7.354-4.938 15.5-6.771 17.438h-9.604c-3 0-5.417 2.542-5.417 5.521 0 2.979 2.417 5.521 5.417 5.521h10.792c5.188 0 8.521-5.021 11.021-10.771l9 14.875c-14.542 11.792-14.5 15.604-14.5 17.5v21.625c0 2.979 2.208 5.417 5.188 5.417s5.188-2.438 5.188-5.417V73.875c1.958-2.062 7.229-6.958 13-11.5h3.229v16c0 2.979 2.729 5.396 5.729 5.396h21.604c3 0 5.417-2.521 5.417-5.5C90.542 75.271 88.125 72.75 85.125 72.75z" fill="#fefee2" data-fill-palette-color="accent"></path></svg></g></svg></g></svg></g></svg></g></svg></g><defs></defs></svg><rect width="395.52" height="71.05406802977876" fill="none" stroke="none" visibility="hidden"></rect></g></svg></g></svg>